<?xml version="1.0" encoding="iso-8859-1"?>
<!DOCTYPE svg PUBLIC "-//W3C//DTD SVG 1.1//EN" "http://www.w3.org/Graphics/SVG/1.1/DTD/svg11.dtd">
<svg xmlns="http://www.w3.org/2000/svg" xmlns:xlink="http://www.w3.org/1999/xlink" version="1.1" viewBox="0 0 512 512" enable-background="new 0 0 512 512" width="32px" height="29px">
  <g>
    <path d="m208,175.999c0-8.82-7.172-16-16-16s-16,7.18-16,16c0,8.82 7.172,16 16,16s16-7.18 16-16z" fill="#533c1f"/>
    <path d="m464,384h-96-192c-17.641,0-32,14.352-32,32 0,8.836-7.156,16-16,16-8.844,0-16-7.164-16-16 0-35.289 28.703-64 64-64h192v-48-272c0-17.672-14.328-32-32-32h-288c-17.672,0-32,14.328-32,32v384c0,52.938 43.063,96 96,96h288c52.938,0 96-43.063 96-96 0-17.672-14.328-32-32-32zm-272-160.001c-26.469,0-48-21.531-48-48 0-12.338 4.813-23.488 12.484-32-7.671-8.512-12.484-19.662-12.484-32 0-26.468 21.531-47.999 48-47.999h32c8.844,0 16,7.164 16,16s-7.156,16-16,16h-32c-8.828,0-16,7.179-16,15.999s7.172,16 16,16c26.469,0 48,21.531 48,48 0,12.338-4.813,23.488-12.484,32 7.672,8.512 12.484,19.663 12.484,32 0,26.469-21.531,48.001-48,48.001h-32c-8.844,0-16-7.164-16-16s7.156-16 16-16h32c8.828,0 16-7.18 16-16.001s-7.172-16-16-16z" fill="#533c1f"/>
  </g>
</svg>
